<?xml version="1.0" encoding="utf-8"?>
<!-- Generator: Adobe Illustrator 18.0.0, SVG Export Plug-In . SVG Version: 6.00 Build 0)  -->
<!DOCTYPE svg PUBLIC "-//W3C//DTD SVG 1.1//EN" "http://www.w3.org/Graphics/SVG/1.1/DTD/svg11.dtd">
<svg version="1.1" id="Layer_1" xmlns="http://www.w3.org/2000/svg" xmlns:xlink="http://www.w3.org/1999/xlink" x="0px" y="0px"
	 viewBox="0 0 51.4 40.1" style="enable-background:new 0 0 51.4 40.1;" xml:space="preserve">
<style type="text/css">
	.st0{fill:#0772B5;}
	.st1{fill:#FFFFFF;}
	.st2{fill:none;stroke:#E38D25;stroke-width:1.6196;}
	.st3{fill:#049B68;}
	.st4{fill:#E38D25;}
	.st5{fill:#BBDDD1;}
	.st6{fill:#FBB482;}
	.st7{fill:#D9D9D9;}
</style>
<g>
	<polygon class="st0" points="23.2,0 47.3,39.9 0,39.9 	"/>
	<path class="st1" d="M23.3,4.6l19.9,33h-39L23.3,4.6 M23.2,0L0,39.9h47.3L23.2,0L23.2,0z"/>
</g>
<path class="st2" d="M46.1,39.6"/>
<path class="st1" d="M34.2,28.4c0.4,0,0.8,0.7,0.7,1.1c-0.1,0.4-0.3,1-0.3,1l-0.3,0.1c0,0,0-0.2,0.1-0.4c0.6-1,0.1-1.6,0-1.7
	C34.4,28.4,34.2,28.4,34.2,28.4z"/>
<g>
	<path class="st3" d="M20.1,20.9c0,0-2.6-1.8-1.9-2.7c0.7-0.9,2.7,0.9,3.1,0c0.5-0.9-1.5-3-1.2-3.4c0.3-0.5,1.4,0.2,1.8-0.4
		c0.3-0.6-1.5-2.5-1.1-3.9c0.3-1.4,1.1-0.2,1.7-0.7c0.6-0.5,0-1.8,1.1-1.8l0.1,13l-3.1,0.4L20.1,20.9z"/>
	<path class="st4" d="M20.4,21.7L20,21c-0.2-0.2-1.9-1.3-2.1-2.3c0-0.2,0-0.4,0.2-0.6c0.2-0.2,0.4-0.3,0.7-0.3
		c0.4,0,0.8,0.2,1.2,0.3c0.3,0.1,0.7,0.3,0.9,0.3c0.2,0,0.3-0.1,0.3-0.2c0.2-0.4-0.3-1.3-0.7-2c-0.4-0.7-0.7-1.2-0.5-1.5
		c0.2-0.2,0.4-0.3,0.6-0.3c0.1,0,0.2,0,0.4,0c0.1,0,0.2,0,0.3,0c0.2,0,0.4-0.1,0.4-0.2c0.1-0.2-0.2-0.7-0.4-1.2
		c-0.4-0.8-0.9-1.8-0.7-2.6c0.1-0.4,0.3-0.8,0.7-0.8c0.1,0,0.3,0,0.4,0.1c0.2,0.1,0.4,0.1,0.6,0c0.2-0.2,0.2-0.4,0.3-0.8
		c0.1-0.5,0.1-1,0.9-1h0.2l0.1,13.3L20.4,21.7z M18.8,18.2c-0.2,0-0.4,0.1-0.5,0.2c-0.1,0.1-0.1,0.2-0.1,0.3
		c0.1,0.7,1.4,1.7,1.9,2.1l0,0l0.4,0.5l2.9-0.4L23.4,8.3C23,8.4,23,8.6,22.9,9.1c0,0.3-0.1,0.7-0.4,1c-0.1,0.1-0.3,0.2-0.5,0.2
		c-0.2,0-0.3,0-0.4-0.1c-0.1,0-0.2-0.1-0.3-0.1c-0.1,0-0.3,0-0.4,0.6c-0.2,0.7,0.3,1.7,0.7,2.4c0.4,0.7,0.6,1.2,0.4,1.5
		c-0.2,0.3-0.5,0.3-0.7,0.3c-0.1,0-0.2,0-0.4,0c-0.1,0-0.2,0-0.3,0c-0.2,0-0.3,0-0.4,0.1c-0.1,0.1,0.3,0.7,0.5,1.1
		c0.5,0.8,1,1.7,0.7,2.3c-0.1,0.2-0.3,0.3-0.6,0.3c-0.3,0-0.7-0.1-1-0.3C19.5,18.3,19.1,18.2,18.8,18.2z"/>
</g>
<g>
	<path class="st5" d="M24.5,10.3c0,0.8,0.8,0,1.2,0.3c0.4,0.4-0.3,2.3,0.1,2.5c0.4,0.3,1.3,0,1.5,0.4c0.2,0.4-0.7,2.7-0.6,3.3
		c0.1,0.6,1.8,0,2.2,0.6c0.3,0.6-0.2,2-0.9,2.4c-0.7,0.4-4.4,1.3-4.4,1.3l-0.2-13C23.4,8.2,24.7,8,24.5,10.3z"/>
	<path class="st4" d="M23.4,21.3L23.2,8l0.1,0c0,0,0,0,0.1,0c0.1,0,0.5,0,0.8,0.4c0.4,0.4,0.5,1,0.5,1.9c0,0.1,0,0.2,0,0.2
		c0,0,0,0,0,0c0.1,0,0.2,0,0.2,0c0.1,0,0.3-0.1,0.4-0.1c0.2,0,0.3,0.1,0.4,0.2c0.2,0.2,0.2,0.8,0.1,1.4c-0.1,0.4-0.1,1,0,1.1
		c0.2,0.1,0.4,0.1,0.6,0.1c0.4,0,0.8,0,0.9,0.3c0.1,0.3,0,0.9-0.3,1.8c-0.2,0.6-0.4,1.3-0.3,1.5c0,0.1,0.5,0.1,0.6,0.1
		c0.1,0,0.1,0,0.2,0c0.1,0,0.1,0,0.2,0c0.4,0,0.9,0,1.1,0.4c0.4,0.7-0.2,2.2-1,2.6c-0.7,0.4-4.3,1.3-4.4,1.3L23.4,21.3z M23.5,8.3
		l0.2,12.6c1.3-0.3,3.7-0.9,4.2-1.2c0.6-0.4,1.1-1.7,0.8-2.2c-0.1-0.2-0.6-0.2-1.1-0.2c-0.1,0-0.1,0-0.2,0c-0.3,0-0.9,0-0.9-0.4
		c-0.1-0.3,0.1-0.8,0.3-1.7c0.2-0.6,0.4-1.4,0.3-1.6c-0.1-0.2-0.4-0.2-0.7-0.2c-0.3,0-0.6,0-0.8-0.1c-0.3-0.2-0.2-0.7-0.1-1.4
		c0.1-0.4,0.1-1,0-1.2c0,0-0.1-0.1-0.2-0.1c-0.1,0-0.2,0-0.3,0.1c-0.2,0.1-0.5,0.1-0.6,0c-0.1-0.1-0.1-0.2-0.1-0.4
		c0-0.8-0.1-1.4-0.4-1.7C23.8,8.4,23.6,8.3,23.5,8.3z"/>
</g>
<g>
	<path class="st6" d="M7.5,34.7l9.2-10c0,0,8.6-0.9,10.4-0.8c1.8,0.2,5.5,2.3,6.2,4.4c0,0,0.5,0.4,0.9-0.3c0,0,1.3,0.4,0.6,2.4
		c0,0,0.6,1.2,0.5,2.2c0,1,0,2.1,0,2.1s1.2,0.9,1.3,1.3c0,0.5-2.7,0-2.7,0l-0.5-2.3L32,35.3l-0.3,0.6L31,35.7l-2.9-2.7
		c-0.1,0.5-1.2,1.5-1.1,2.1c0.1,0.6,0,0.3,0,0.3c0.6,0.1,0.3,0.1,0.7,0.4c0.4,0.3,0.5,0.7,0.5,0.7s-1.5,0.1-2.1,0
		c-0.6-0.1-1.2-3.1-1.2-3.3c0,0-1.2,0.1-1.9,0c-0.8-0.2-1.8-0.7-2.3-0.9l-1.8,1c0,0,0.5,0.8,1.1,0.8c0.6,0,0.1,0,0.3,0.2
		c0.2,0.3,0.6,0.8,0.6,0.8l-3,0l-2-2.1l0.2-0.5l-0.2-0.4L7.5,34.7z"/>
	<path class="st4" d="M26.9,36.9c-0.4,0-0.6,0-0.8,0c-0.7-0.1-1.2-2.7-1.4-3.3c-0.2,0-0.5,0-0.8,0c-0.4,0-0.8,0-1-0.1
		c-0.5-0.1-1.2-0.4-1.7-0.6c-0.2-0.1-0.4-0.2-0.5-0.2l-1.6,0.9c0.2,0.2,0.5,0.6,0.9,0.6c0.1,0,0.2,0,0.2,0c0.1,0,0.2,0,0.2,0.1
		l0,0.1l-0.1,0c0.2,0.3,0.5,0.8,0.6,0.8l0.1,0.2l-3.3,0l-2.1-2.2l0.2-0.5l-0.1-0.2L7,35l9.6-10.4l0.1,0c0.1,0,7.3-0.8,9.8-0.8
		c0.2,0,0.4,0,0.6,0c1.9,0.2,5.6,2.3,6.3,4.5c0,0,0.1,0.1,0.2,0.1c0.2,0,0.3-0.1,0.4-0.3l0.1-0.1l0.1,0c0,0,0.5,0.2,0.8,0.7
		c0.2,0.5,0.2,1.1,0,1.8c0.1,0.3,0.5,1.3,0.5,2.2c0,0.8,0,1.7,0,2c0.3,0.2,1.2,0.9,1.3,1.4c0,0.1,0,0.1-0.1,0.2
		c-0.1,0.1-0.2,0.2-0.9,0.2c-0.8,0-2-0.2-2-0.2l-0.1,0l-0.5-2.1l-1.1,1.1l-0.3,0.7l-0.8-0.3l-2.8-2.5c-0.1,0.2-0.2,0.4-0.4,0.7
		c-0.3,0.4-0.6,0.9-0.6,1.2c0,0.1,0,0.2,0,0.2c0.2,0,0.3,0.1,0.4,0.2c0,0,0.1,0.1,0.2,0.2c0.5,0.4,0.5,0.8,0.5,0.8l0,0.2l-0.2,0
		C28.2,36.9,27.5,36.9,26.9,36.9z M25,33.2l0,0.1c0.2,1.1,0.8,3.2,1.1,3.2c0.2,0,0.4,0,0.8,0c0.4,0,0.8,0,1.1,0
		c-0.1-0.1-0.2-0.3-0.4-0.5c-0.2-0.1-0.2-0.2-0.3-0.3c0,0,0-0.1-0.2-0.1l0,0l-0.1,0h0c-0.1,0-0.2-0.1-0.2-0.2l-0.1-0.2l0.1,0
		c0,0,0-0.1,0-0.1c-0.1-0.4,0.3-0.9,0.6-1.4c0.2-0.3,0.4-0.6,0.5-0.8l0-0.3l3.1,2.8l0.5,0.2l0.3-0.6l1.5-1.6l0.6,2.5
		c0.3,0,1.2,0.2,1.8,0.2c0.4,0,0.6-0.1,0.6-0.1c-0.1-0.3-0.7-0.9-1.2-1.2l-0.1,0v-0.1c0,0,0-1,0-2.1c0-1-0.5-2.1-0.5-2.1l0-0.1
		l0-0.1c0.3-0.7,0.3-1.2,0.1-1.6c-0.1-0.3-0.3-0.4-0.5-0.5c-0.2,0.3-0.4,0.3-0.6,0.3c-0.2,0-0.4-0.1-0.5-0.1l0,0l0,0
		c-0.6-2-4.2-4.1-6-4.3c-0.1,0-0.3,0-0.6,0c-2.4,0-9,0.7-9.7,0.8L8,34.4l7.9-2.2l0.2,0.6L16,33.2l1.9,1.9l2.6,0
		c-0.1-0.2-0.3-0.4-0.4-0.6c0-0.1-0.1-0.1-0.1-0.2c0,0-0.1,0-0.1,0c-0.7,0-1.2-0.9-1.2-0.9l-0.1-0.1l2-1.1l0.1,0
		c0.2,0.1,0.4,0.2,0.6,0.3c0.5,0.2,1.1,0.5,1.6,0.6c0.3,0.1,0.6,0.1,1,0.1c0.5,0,0.9,0,0.9,0L25,33.2z"/>
</g>
<path d="M27.9,28.4c0.7,0,0.7,0.2,1.2,0.5c0.5,0.3,0.3,0.5,1.2,0.6c0,0-0.8,0.1-1.1,0.4c-0.3,0.3-0.8,0.9-0.9,1.2
	c0,0-0.3-1.2-0.4-1.6C27.9,29.1,27.9,28.4,27.9,28.4z"/>
<path d="M27.9,28.4"/>
<path d="M33.3,28.8c0,0.5,0,0.6-0.4,1.2c-0.3,0.4,0,0.1,0,0.1s0.4-0.4,0.7-0.3c0.3,0.1,0.3,0.4,0.5,0.6c0.2,0.2,0.2,0.1,0.2,0.1
	s0.5-1,0.4-1.6c-0.1-0.3-0.4-0.6-0.5-0.6C34,28.4,33.3,28.6,33.3,28.8z"/>
<path class="st1" d="M34.2,28.4c0,0,0,0.5-0.1,0.9c-0.1,0.4-0.4,0.9-0.4,0.9l0.2,0.3c0,0,0.6-0.9,0.4-1.7
	C34.4,28.5,34.2,28.4,34.2,28.4z"/>
<path class="st1" d="M27.9,28.4c0,0,0.3,0,0.5,0.2c0.2,0.3,0.4,1.5,0.4,1.5s-0.3-1.2-0.6-1.4c-0.4-0.2-0.3-0.2-0.3-0.2L27.9,28.4z"
	/>
<path class="st1" d="M28.2,32l0,0.5c0,0,1.1,0.3,1.4,0.1c0.3-0.2,1.2-0.1,1.2-0.1l-0.2-1c0,0-0.2,0.1-0.7,0.4
	C29.5,32.1,29.5,32.3,28.2,32z"/>
<path class="st1" d="M31.5,32.1l1.6,0.7l1.1-0.2l0.5-0.1l0-0.4c0,0-0.8,0.3-1.2,0.1c-0.5-0.2-0.9-0.6-1.2-0.8L31.5,32.1z"/>
<path d="M28,33.1l-0.1-0.8c0,0,0.9,0.3,1.4,0.2c0.5-0.2,1.2-0.7,1.2-0.7l0.2,0.6l0.1,0l0.6-1.6l0.5,1.5c0,0,0.3-0.2,0.4-0.4
	c0.1-0.2,0.3,0.4,0.8,0.5c0.4,0.1,1.8,0,1.8,0s-0.6,1.3-1.2,1.6c0,0,0,0.1-0.2,0c-0.2-0.1-1.4,1.6-1.6,1.8c-0.2,0.1-0.4,0-0.6-0.1
	C31,35.5,28.1,33.2,28,33.1z"/>
<path class="st1" d="M31.6,34.3l0,0.8c0,0,0.1,0.1,0.2,0.2c0.1,0.1,0.2,0,0.3-0.1c0.1-0.2,0.3-0.4,0.3-0.6c0-0.2-0.1-0.5-0.2-0.5
	C32,34,31.7,34.1,31.6,34.3z"/>
<path class="st1" d="M30,34.4c0.2-0.1,0.7-0.4,0.8-0.3c0.2,0.1,0.4,0.4,0.4,1c0,0.2-0.1,0.4-0.2,0.3c-0.2,0-1-0.7-1.1-0.8
	C29.9,34.4,30,34.4,30,34.4z"/>
<polygon points="8,34.4 15.5,26.3 15.3,32.4 "/>
<polyline class="st1" points="14,27.8 14,32.7 13.2,33 13.1,28.9 "/>
<polygon class="st1" points="11.2,30.9 12.1,29.9 12.1,33.3 11.2,33.6 "/>
<polygon class="st1" points="9.5,32.8 10.3,31.9 10.3,33.8 9.6,34 "/>
<path class="st4" d="M26.9,36.9c-0.4,0-0.6,0-0.8,0c-0.7-0.1-1.2-2.7-1.4-3.3c-0.2,0-0.5,0-0.8,0c-0.4,0-0.8,0-1-0.1
	c-0.5-0.1-1.2-0.4-1.7-0.6c-0.2-0.1-0.4-0.2-0.5-0.2l-1.6,0.9c0.2,0.2,0.5,0.6,0.9,0.6c0.1,0,0.2,0,0.2,0c0.1,0,0.2,0,0.2,0.1l0,0.1
	l-0.1,0c0.2,0.3,0.5,0.8,0.6,0.8l0.1,0.2l-3.3,0l-2.1-2.2l0.2-0.5l-0.1-0.2l-8.7,2.5l9.6-10.4l0.1,0c0.1,0,7.3-0.8,9.8-0.8
	c0.2,0,0.4,0,0.6,0c1.9,0.2,5.6,2.3,6.3,4.5c0,0,0.1,0.1,0.2,0.1c0.2,0,0.3-0.1,0.4-0.3l0.1-0.1l0.1,0c0,0,0.5,0.2,0.8,0.7
	c0.2,0.5,0.2,1.1,0,1.8c0.1,0.3,0.5,1.3,0.5,2.2c0,0.8,0,1.7,0,2c0.3,0.2,1.2,0.9,1.3,1.4c0,0.1,0,0.1-0.1,0.2
	c-0.1,0.1-0.2,0.2-0.9,0.2c-0.8,0-2-0.2-2-0.2l-0.1,0l-0.5-2.1l-1.1,1.1l-0.3,0.7L31,35.9l-2.8-2.5c-0.1,0.2-0.2,0.4-0.4,0.7
	c-0.3,0.4-0.6,0.9-0.6,1.2c0,0.1,0,0.2,0,0.2c0.2,0,0.3,0.1,0.4,0.2c0,0,0.1,0.1,0.2,0.2c0.5,0.4,0.5,0.8,0.5,0.8l0,0.2l-0.2,0
	C28.2,36.9,27.6,36.9,26.9,36.9z M25,33.2l0,0.1c0.2,1.1,0.8,3.2,1.1,3.2c0.2,0,0.4,0,0.8,0c0.4,0,0.8,0,1.1,0
	c-0.1-0.1-0.2-0.3-0.4-0.5c-0.2-0.1-0.2-0.2-0.3-0.3c0,0,0-0.1-0.2-0.1l0,0l-0.1,0c0,0,0,0,0,0c-0.1,0-0.2-0.1-0.2-0.2l-0.1-0.2
	l0.1,0c0,0,0-0.1,0-0.1c-0.1-0.4,0.3-0.9,0.6-1.4c0.2-0.3,0.4-0.6,0.5-0.8l0-0.3l3.1,2.8l0.5,0.2l0.3-0.6l1.5-1.6l0.6,2.5
	c0.3,0,1.2,0.2,1.8,0.2c0.4,0,0.6-0.1,0.6-0.1c-0.1-0.3-0.7-0.9-1.2-1.2l-0.1,0v-0.1c0,0,0-1,0-2.1c0-1-0.5-2.1-0.5-2.1l0-0.1l0-0.1
	c0.3-0.7,0.3-1.2,0.1-1.6c-0.1-0.3-0.3-0.4-0.5-0.5c-0.2,0.3-0.4,0.3-0.6,0.3c-0.2,0-0.4-0.1-0.5-0.1l0,0l0,0c-0.6-2-4.2-4.1-6-4.3
	c-0.1,0-0.3,0-0.6,0c-2.4,0-9,0.7-9.7,0.8L8,34.5l7.9-2.2l0.2,0.6L16,33.3l1.9,1.9l2.6,0c-0.1-0.2-0.3-0.4-0.4-0.6
	c0-0.1-0.1-0.1-0.1-0.2c0,0-0.1,0-0.1,0c-0.7,0-1.2-0.9-1.2-0.9l-0.1-0.1l2-1.1l0.1,0c0.2,0.1,0.4,0.2,0.6,0.3
	c0.5,0.2,1.1,0.5,1.6,0.6c0.3,0.1,0.6,0.1,1,0.1c0.5,0,0.9,0,0.9,0L25,33.2z"/>
<path class="st4" d="M24.8,33.5c0-0.1-1.1-2.3,0.2-4.2l0.3,0.2C24,31.2,25,33.3,25,33.3L24.8,33.5z"/>
<g>
	<path class="st7" d="M14.4,23c0,0,1.2-0.9,2.1-1.3c0.9-0.3,3-0.6,3.3-0.6c0.3,0,0.4-1.1,0.4-1.1l0.3,0.6l0.3-0.8l0.1,0.6l0.6-0.8
		l-0.1,0.7l0.8-1.1L22.2,20l0.7-0.9l-0.1,0.8l0.8-0.9l-0.1,0.9l0.5-0.6l-0.1,0.8l0.4-0.5l0,0.6l0.2-0.4v0.6l0.8-0.7l0.2,0.3
		c0,0,2.2-0.9,2.6,0.4c0.4,1.3,0.4,1.8-0.9,2.4c0,0-0.2,0.2,0,0.3c0.3,0.1,1.5,0.2,2.2,0c0.6-0.3,1.5-0.7,1.9-0.9
		c0.5-0.2,1-0.3,1.3-0.2c0,0,0.2,0.1,0,0.7c-0.2,0.6-0.4,1.2-0.6,1.5c0,0,0.1,0.2,0.3,0.7c0.2,0.5,0.5,1.6,0.4,2
		c0,0-0.3-0.3-0.9-0.6c-0.5-0.3-1.1-0.9-1.8-0.9c-0.7-0.1-2.4-0.4-2.7-0.1c0,0,0.5,0.1,0.7,0.4c0.2,0.3,0.4,0.2,0.3,0.8
		c-0.1,0.6-0.7,1.3-1.2,1.4c-0.4,0.1-1.8-0.4-1.8-0.4V28c0,0-0.9-1.1-1.2-1.5c0,0-1.6,0.1-2.2,0.1c-0.6,0-2-0.3-2.3-0.3
		c-0.3,0,0.9,1.2,1.1,1.4l-1,0.6c0,0-0.5-0.6-0.6-0.9c-0.1-0.3-0.2-1-0.2-1.2c0,0-2.6,0-3.1-0.3c-0.5-0.3-1.5-0.9-1.6-1.2
		c0-0.3,0-0.2,0-0.2l1.1,0v-0.3l-0.9-0.9C14.4,23.2,14.2,23.4,14.4,23z"/>
	<path class="st4" d="M25.4,28.4l-0.3-0.3c0,0-0.8-1-1.1-1.5c-0.4,0-1.6,0.1-2.1,0.1c-0.4,0-1.3-0.2-1.9-0.3c-0.1,0-0.1,0-0.2,0
		c0.2,0.3,0.8,1,1,1.1l0.2,0.1l-1.3,0.7l-0.1-0.1c-0.1-0.1-0.5-0.6-0.6-1c-0.1-0.3-0.2-0.8-0.2-1.1c-0.6,0-2.6,0-3.1-0.3
		c-1.2-0.7-1.6-1-1.7-1.3c0-0.1,0-0.2,0-0.3l0-0.1l0.1,0c0,0,0.1,0,0.1,0l0.9,0v0l-0.8-0.8h-0.1l0-0.1c-0.1-0.1,0-0.2,0.1-0.4l0,0
		l0,0c0.1,0,1.3-1,2.2-1.3c0.9-0.3,2.8-0.6,3.3-0.6c0,0,0,0,0.1,0c0.1-0.1,0.2-0.5,0.3-1l0.1-0.5l0.3,0.7l0.4-0.9l0.2,0.7l0.8-1
		l-0.1,0.6l0.4-0.5l0.3,0.1l0,0.1l0.3-0.4l0.3,0.1l0,0.3l0.8-0.9l-0.1,0.8l0.5-0.6L24,19.6l0.4-0.5l0,0.3l0.2-0.3v0.8l0.7-0.6
		l0.2,0.4c0.2-0.1,0.8-0.2,1.3-0.2c0.9,0,1.2,0.4,1.3,0.8c0.4,1.3,0.4,1.9-1,2.6c0.2,0,0.6,0.1,1,0.1c0.4,0,0.8,0,1-0.1
		c0.4-0.2,0.8-0.4,1.2-0.6c0.3-0.1,0.5-0.3,0.7-0.3c0.5-0.2,1.1-0.3,1.4-0.2l0,0c0.1,0,0.3,0.2,0.1,0.9c-0.2,0.6-0.4,1.2-0.6,1.5
		c0,0.1,0.1,0.3,0.2,0.7c0.2,0.5,0.5,1.6,0.4,2.1l0,0.3l-0.2-0.2c0,0-0.3-0.3-0.8-0.6c-0.1-0.1-0.3-0.2-0.4-0.3
		c-0.4-0.3-0.8-0.6-1.3-0.6c-0.1,0-0.3,0-0.4-0.1c-0.5-0.1-1.2-0.2-1.7-0.2c0,0,0,0,0,0c0.1,0.1,0.2,0.1,0.3,0.2
		c0,0.1,0.1,0.1,0.1,0.1c0.2,0.1,0.3,0.3,0.2,0.8c-0.1,0.7-0.8,1.4-1.3,1.5c-0.1,0-0.1,0-0.2,0c-0.4,0-1.1-0.2-1.5-0.3V28.4z
		 M14.3,24.6c0.1,0.1,0.6,0.5,1.5,1c0.4,0.2,2,0.3,3.1,0.3H19V26c0,0.1,0.1,0.8,0.2,1.2c0.1,0.2,0.3,0.6,0.5,0.8l0.7-0.4
		c-0.4-0.3-1.1-1.2-1.1-1.4c0-0.1,0.1-0.1,0.2-0.1l0,0c0.1,0,0.2,0,0.5,0.1c0.5,0.1,1.5,0.2,1.9,0.3c0.5,0,2.2-0.1,2.2-0.1l0.1,0
		l0,0.1c0.1,0.3,0.6,0.8,0.9,1.2V27l0.2,0.1c0,0,1.1,0.4,1.6,0.4c0.1,0,0.1,0,0.1,0c0.4-0.1,0.9-0.7,1.1-1.3c0.1-0.4,0-0.4-0.1-0.5
		c-0.1,0-0.1-0.1-0.2-0.2c-0.1-0.2-0.5-0.3-0.6-0.3l-0.3-0.1l0.2-0.2c0.1-0.1,0.3-0.1,0.7-0.1c0.5,0,1.2,0.1,1.8,0.2
		c0.2,0,0.3,0,0.4,0.1c0.5,0.1,1,0.4,1.4,0.7c0.2,0.1,0.3,0.2,0.4,0.3c0.2,0.1,0.5,0.3,0.6,0.4c-0.1-0.5-0.3-1.2-0.4-1.6
		c-0.2-0.5-0.3-0.7-0.3-0.7l0-0.1l0-0.1c0.2-0.3,0.4-0.8,0.6-1.5c0.1-0.3,0.1-0.5,0.1-0.5c-0.1,0-0.1,0-0.2,0c-0.3,0-0.7,0.1-1,0.2
		c-0.2,0.1-0.4,0.2-0.7,0.3c-0.4,0.2-0.9,0.5-1.3,0.6c-0.3,0.1-0.8,0.2-1.1,0.2c-0.5,0-1-0.1-1.2-0.1c-0.2-0.1-0.2-0.2-0.2-0.2
		c0-0.2,0.1-0.3,0.1-0.3l0,0c1.2-0.6,1.2-0.9,0.9-2.2c-0.1-0.4-0.5-0.6-1-0.6c-0.6,0-1.3,0.3-1.3,0.3l-0.1,0l-0.1-0.2l-0.9,0.8v-0.5
		L24,20.1l0-0.1l-0.4,0.5l0.1-0.8l-0.5,0.7l0.1-0.9l-0.8,0.9l0.1-0.7l-0.3,0.4L22,20l0-0.1l-0.4,0.5l-0.3-0.1l0-0.1l-0.5,0.6
		l-0.1-0.4L20.6,21l-0.2-0.4c-0.1,0.5-0.3,0.8-0.5,0.8l0,0c0,0,0,0,0,0c-0.5,0-2.4,0.3-3.2,0.6c-0.8,0.3-1.9,1.1-2.1,1.2
		c0,0,0,0,0,0.1l0.9,0.9v0.5L14.3,24.6z"/>
</g>
<g>
	<ellipse class="st4" cx="15.9" cy="22.9" rx="0.3" ry="0.3"/>
	<path class="st4" d="M15.9,23.3c-0.2,0-0.4-0.2-0.4-0.4s0.2-0.4,0.4-0.4c0.2,0,0.4,0.2,0.4,0.4S16.1,23.3,15.9,23.3z M15.9,22.7
		c-0.1,0-0.2,0.1-0.2,0.2c0,0.1,0.1,0.2,0.2,0.2c0.1,0,0.2-0.1,0.2-0.2C16.1,22.8,16,22.7,15.9,22.7z"/>
</g>
<g>
	<path class="st4" d="M15.6,23.8c0.3,0.2,0.5,0.6,0.5,1c0,0,0,0.1,0.1,0.1c0,0,0.1,0,0.1-0.1c0-0.4-0.2-0.9-0.5-1.1l0,0
		C15.7,23.7,15.6,23.7,15.6,23.8C15.6,23.8,15.6,23.8,15.6,23.8L15.6,23.8z"/>
	<path class="st4" d="M16.2,25L16.2,25c-0.1,0-0.2-0.1-0.2-0.2c0-0.4-0.2-0.7-0.4-0.9c0,0-0.1-0.1-0.1-0.1c0,0,0-0.1,0-0.1
		c0-0.1,0.2-0.1,0.2,0c0.5,0.3,0.6,0.9,0.6,1.2C16.3,24.9,16.3,25,16.2,25L16.2,25z"/>
</g>
<g>
	<path class="st4" d="M16.7,26c0.8,0.1,1.3-0.5,1.2-1.1l0,0l-0.2,0.1l0,0c0,0,0,0.1,0.1,0.1l0,0c0,0,0,0,0,0l0,0
		c0.2,0.1,0.1-0.3,0.3-0.4l0.1,0c0,0,0,0,0.1,0l0,0c0.3-0.5,0.3-1,0.3-1.5c0,0,0-0.1-0.1-0.1c0,0-0.1,0-0.1,0.1
		c-0.1,0.4,0,0.9-0.3,1.4l-0.1,0.1l0.1,0l-0.1,0c-0.1,0-0.2,0.1-0.2,0l0.1,0.3l0,0l0,0c0,0-0.1,0-0.1,0l0.1-0.1c0,0-0.1,0-0.1,0
		c0,0-0.1,0.1-0.1,0.1l0,0.1c0,0.5-0.4,0.9-1,0.8c0,0-0.1,0-0.1,0.1C16.6,25.9,16.7,25.9,16.7,26L16.7,26z"/>
	<path class="st4" d="M16.9,26.1C16.9,26.1,16.9,26.1,16.9,26.1c-0.1,0-0.2,0-0.2,0c-0.1,0-0.2-0.1-0.1-0.2c0-0.1,0.1-0.1,0.2-0.1
		l0,0c0,0,0.1,0,0.1,0c0.4,0,0.7-0.3,0.7-0.7l-0.1,0l0.1-0.1l0,0l0-0.1l0,0c0,0,0-0.1,0-0.1c0,0,0.1-0.1,0.1-0.1l0-0.2l0.2,0
		c0,0,0.1,0,0.1,0c0,0,0.1,0,0.1,0l0,0l0-0.1c0.2-0.3,0.2-0.5,0.2-0.8c0-0.2,0-0.3,0.1-0.5c0-0.1,0.1-0.1,0.2-0.1l0,0
		c0,0,0.1,0,0.1,0.1c0,0,0,0.1,0,0.1c0,0.1,0,0.3-0.1,0.4c0,0.4-0.1,0.8-0.3,1.1l0,0c0,0-0.1,0.1-0.1,0.1l-0.1,0c0,0,0,0.1-0.1,0.1
		c0,0.1-0.1,0.2-0.1,0.2C17.9,25.7,17.4,26.1,16.9,26.1z"/>
</g>
<g>
	<path class="st6" d="M50.3,37.8c0.6,0,1.1,0.5,1.1,1.1c0,0.6-0.5,1.1-1.1,1.1c-0.6,0-1.1-0.5-1.1-1.1
		C49.2,38.3,49.7,37.8,50.3,37.8L50.3,37.8z M50.3,38c-0.5,0-0.9,0.4-0.9,1c0,0.5,0.4,1,0.9,1c0.5,0,0.9-0.4,0.9-1
		C51.2,38.4,50.8,38,50.3,38L50.3,38z M50.1,39.6h-0.2v-1.3c0.1,0,0.2,0,0.4,0c0.2,0,0.3,0,0.4,0.1c0.1,0.1,0.1,0.1,0.1,0.3
		c0,0.2-0.1,0.3-0.2,0.3v0c0.1,0,0.2,0.1,0.2,0.3c0,0.2,0.1,0.3,0.1,0.3h-0.2c0,0-0.1-0.2-0.1-0.3c0-0.2-0.1-0.2-0.3-0.2h-0.1V39.6z
		 M50.1,38.9h0.1c0.2,0,0.3-0.1,0.3-0.2c0-0.1-0.1-0.2-0.3-0.2c-0.1,0-0.1,0-0.1,0V38.9z"/>
</g>
</svg>
